<svg xmlns="http://www.w3.org/2000/svg" xmlns:xlink="http://www.w3.org/1999/xlink" width="70" height="70" viewBox="0 0 70 70">
  <defs>
    <path id="avatar-a" d="M35,0 L35,0 C54.3299662,-3.55085719e-15 70,15.6700338 70,35 L70,35 C70,54.3299662 54.3299662,70 35,70 L35,70 C15.6700338,70 2.36723813e-15,54.3299662 0,35 L0,35 C-2.36723813e-15,15.6700338 15.6700338,3.55085719e-15 35,0 Z"/>
  </defs>
  <g fill="none" fill-rule="evenodd">
    <mask id="avatar-b" fill="#fff">
      <use xlink:href="#avatar-a"/>
    </mask>
    <use fill="#DDD" xlink:href="#avatar-a"/>
    <path fill="#BBB" d="M57,61.3736979 C57,63.7391611 56.3001372,65.7682207 54.9003906,67.4609375 C53.500644,69.1536543 51.8153744,70 49.8445312,70 L21.1554687,70 C19.1846256,70 17.499356,69.1536543 16.0996094,67.4609375 C14.6998628,65.7682207 14,63.7391611 14,61.3736979 C14,59.5290706 14.0951813,57.7875516 14.2855469,56.1490885 C14.4759124,54.5106255 14.8286433,52.8613364 15.34375,51.2011719 C15.8588567,49.5410073 16.5139283,48.1195806 17.3089844,46.936849 C18.1040404,45.7541174 19.1566341,44.7884152 20.4667969,44.0397135 C21.7769597,43.2910119 23.2830644,42.9166667 24.9851563,42.9166667 C27.9190251,45.6944583 31.423938,47.0833333 35.5,47.0833333 C39.576062,47.0833333 43.0809749,45.6944583 46.0148438,42.9166667 C47.7169356,42.9166667 49.2230403,43.2910119 50.5332031,44.0397135 C51.8433659,44.7884152 52.8959596,45.7541174 53.6910156,46.936849 C54.4860717,48.1195806 55.1411433,49.5410073 55.65625,51.2011719 C56.1713567,52.8613364 56.5240876,54.5106255 56.7144531,56.1490885 C56.9048187,57.7875516 57,59.5290706 57,61.3736979 Z M48.4,32.5 C48.4,35.9505381 47.140247,38.8964722 44.6207031,41.3378906 C42.1011593,43.7793091 39.0609553,45 35.5,45 C31.9390447,45 28.8988407,43.7793091 26.3792969,41.3378906 C23.859753,38.8964722 22.6,35.9505381 22.6,32.5 C22.6,29.0494619 23.859753,26.1035278 26.3792969,23.6621094 C28.8988407,21.2206909 31.9390447,20 35.5,20 C39.0609553,20 42.1011593,21.2206909 44.6207031,23.6621094 C47.140247,26.1035278 48.4,29.0494619 48.4,32.5 Z" mask="url(#avatar-b)"/>
  </g>
</svg>
