<?xml version="1.0" encoding="utf-8"?>
<svg version="1.1" xmlns="http://www.w3.org/2000/svg" xmlns:xlink="http://www.w3.org/1999/xlink" x="0px" y="0px"
	 width="214px" height="32px" viewBox="0 0 214 32" style="enable-background:new 0 0 214 32;" xml:space="preserve">
<g style="fill:#13B3BA;">
	<circle cx="16.1" cy="12.6" r="1.9"/>
	<circle cx="16.1" cy="7.7" r="2.3"/>
	<path d="M22,8c-1.3,0-2.3,1-2.3,2.3c0,0.8,0.4,1.5,1,1.9c-1.8,2.2-3.2,4.8-4,7.7v-4.5h-1v4.5
		c-0.8-2.9-2.2-5.6-4-7.7c0.6-0.4,1-1.1,1-1.9c0-1.3-1-2.3-2.3-2.3S8,9,8,10.3s1,2.3,2.3,2.3h0.3c3.2,3.5,5.1,8.8,5.1,14.2h1
		c-0.1-5.4,1.9-10.6,5.1-14.2H22c1.3,0,2.3-1,2.3-2.3C24.2,9,23.2,8,22,8z"/>
	<path d="M16.1,1.2C24.3,1.2,31,7.9,31,16.1S24.3,31,16.1,31S1.2,24.3,1.2,16.1S7.9,1.2,16.1,1.2z M16.1,0.2
		C7.3,0.2,0.1,7.3,0.1,16.1S7.3,32,16.1,32S32,24.9,32,16.1S24.9,0.2,16.1,0.2z"/>
	<path d="M37.8,8h3l3.8,11.8l3.9-11.8h2.4l3.9,11.8L58.4,8h2.9l-5.5,16h-2.4l-3.9-11.4L45.6,24h-2.4L37.8,8z"
		/>
	<path d="M63.7,8h11.8v2.5h-9v4.1h7.9v2.5h-7.9v4.2h9.1v2.5H63.7V8z"/>
	<path d="M78.7,8h5.9c5,0,8.4,3.4,8.4,7.9V16c0,4.5-3.5,7.9-8.4,7.9h-5.9V8z M81.5,10.5v10.8h3.1
		c3.3,0,5.5-2.2,5.5-5.4v-0.1c0-3.1-2.2-5.4-5.5-5.4L81.5,10.5L81.5,10.5z"/>
	<path d="M96.1,8h5.9c5,0,8.4,3.4,8.4,7.9V16c0,4.5-3.5,7.9-8.4,7.9h-5.9V8z M98.9,10.5v10.8h3.1
		c3.3,0,5.5-2.2,5.5-5.4v-0.1c0-3.1-2.2-5.4-5.5-5.4L98.9,10.5L98.9,10.5z"/>
	<path d="M113.5,8h2.8v15.9h-2.8V8z"/>
	<path d="M120.2,8h2.6l8.5,11V8h2.7v15.9h-2.4l-8.8-11.3v11.3h-2.7L120.2,8L120.2,8z"/>
	<path d="M137.1,16c0-4.5,3.4-8.3,8.2-8.3c2.8,0,4.5,0.8,6.1,2.2l-1.7,2.1c-1.3-1-2.4-1.7-4.5-1.7
		c-2.9,0-5.1,2.6-5.1,5.6V16c0,3.3,2.2,5.7,5.4,5.7c1.5,0,2.9-0.5,3.8-1.2v-3h-4v-2.4h6.7v6.7c-1.6,1.3-3.8,2.5-6.6,2.5
		C140.4,24.1,137.1,20.6,137.1,16L137.1,16z"/>
	<path d="M153.5,8h1.9l4.5,13.2l4.4-13.3h1.5l4.4,13.3L174.7,8h1.9l-5.7,16h-1.5L165,11.1L160.6,24h-1.5
		L153.5,8z"/>
	<path d="M179.3,8h1.8v15.9h-1.8V8z"/>
	<path d="M185.4,8h6.8c1.9,0,3.5,0.6,4.5,1.6c0.8,0.8,1.3,1.9,1.3,3.1v0.1c0,2.6-1.8,4.2-4.3,4.7l4.9,6.5
		h-2.2l-4.6-6.2h-4.5v6.2h-1.8L185.4,8z M192.1,16.1c2.4,0,4.1-1.3,4.1-3.3v-0.1c0-1.9-1.5-3.1-4-3.1h-4.9v6.5H192.1z"/>
	<path d="M201.5,8h11.5v1.6h-9.7V15h8.7v1.6h-8.7v5.6h9.8v1.6h-11.6V8z"/>
</g>
</svg>